<?xml version="1.0" encoding="UTF-8" standalone="no"?>
<!-- Created with Inkscape (http://www.inkscape.org/) -->

<svg
   xmlns:dc="http://purl.org/dc/elements/1.1/"
   xmlns:cc="http://creativecommons.org/ns#"
   xmlns:rdf="http://www.w3.org/1999/02/22-rdf-syntax-ns#"
   xmlns:svg="http://www.w3.org/2000/svg"
   xmlns="http://www.w3.org/2000/svg"
   xmlns:sodipodi="http://sodipodi.sourceforge.net/DTD/sodipodi-0.dtd"
   xmlns:inkscape="http://www.inkscape.org/namespaces/inkscape"
   width="169.31041mm"
   height="169.33333mm"
   viewBox="0 0 169.31041 169.33333"
   version="1.1"
   id="svg8"
   inkscape:version="0.92.4 (5da689c313, 2019-01-14)"
   sodipodi:docname="account.svg">
  <defs
     id="defs2" />
  <sodipodi:namedview
     id="base"
     pagecolor="#ffffff"
     bordercolor="#666666"
     borderopacity="1.0"
     inkscape:pageopacity="0.0"
     inkscape:pageshadow="2"
     inkscape:zoom="0.35"
     inkscape:cx="-198.61474"
     inkscape:cy="371.42857"
     inkscape:document-units="mm"
     inkscape:current-layer="layer1"
     showgrid="false"
     inkscape:window-width="1360"
     inkscape:window-height="705"
     inkscape:window-x="-8"
     inkscape:window-y="-8"
     inkscape:window-maximized="1" />
  <metadata
     id="metadata5">
    <rdf:RDF>
      <cc:Work
         rdf:about="">
        <dc:format>image/svg+xml</dc:format>
        <dc:type
           rdf:resource="http://purl.org/dc/dcmitype/StillImage" />
        <dc:title></dc:title>
      </cc:Work>
    </rdf:RDF>
  </metadata>
  <g
     inkscape:label="Layer 1"
     inkscape:groupmode="layer"
     id="layer1"
     transform="translate(-35.541221,-77.773809)">
    <g
       id="g829"
       transform="matrix(0.35277778,0,0,0.35277778,35.541221,77.773809)"
       style="fill:#ffffff;fill-opacity:0.90452259">
      <path
         id="path815"
         d="M 240,0 C 107.45313,0 0,107.45313 0,240 c 0,132.54687 107.45313,240 240,240 7.23047,0 14.43359,-0.32422 21.60156,-0.96875 6.66406,-0.59766 13.26953,-1.51172 19.82422,-2.65625 l 2.51953,-0.44531 C 405.80859,453.1875 490.30469,341.37891 478.90625,217.93359 467.50781,94.488281 363.96875,0.0390625 240,0 Z m -19.28125,463.15234 h -0.56641 c -6.22265,-0.55078 -12.39843,-1.38281 -18.51953,-2.44922 -0.35156,-0.0625 -0.70312,-0.10156 -1.04687,-0.16796 -5.98438,-1.07032 -11.90625,-2.39844 -17.76953,-3.94922 l -1.41797,-0.36328 c -5.71875,-1.55079 -11.375,-3.35157 -16.94922,-5.35157 -0.57813,-0.20703 -1.16016,-0.39062 -1.73828,-0.60547 -5.46485,-2.00781 -10.83203,-4.25781 -16.11719,-6.6914 -0.65625,-0.29297 -1.3125,-0.57422 -1.96875,-0.88672 -5.18359,-2.39844 -10.26563,-5.10156 -15.25,-7.94531 -0.70313,-0.39844 -1.41406,-0.79688 -2.11719,-1.19141 -4.90625,-2.86328 -9.69922,-5.93359 -14.40234,-9.17578 -0.71094,-0.49609 -1.42969,-0.97656 -2.13672,-1.47266 -4.62109,-3.27734 -9.125,-6.75781 -13.511719,-10.39843 L 96,411.44922 V 344 c 0.05859,-48.57813 39.42187,-87.94141 88,-88 h 112 c 48.57812,0.0586 87.94141,39.42187 88,88 v 67.45703 l -1.0625,0.88672 c -4.47266,3.73437 -9.0625,7.26562 -13.77734,10.60156 -0.625,0.4375 -1.25782,0.85547 -1.87891,1.28516 -4.75781,3.30469 -9.63281,6.41406 -14.625,9.33594 -0.625,0.36328 -1.26562,0.70703 -1.88672,1.0664 -5.05859,2.87891 -10.20312,5.59766 -15.44922,8.04688 -0.60156,0.28125 -1.20703,0.54297 -1.8164,0.80078 -5.32813,2.45703 -10.74219,4.71875 -16.2461,6.74219 -0.54687,0.20312 -1.09765,0.3789 -1.60156,0.57031 -5.60156,2.00781 -11.28125,3.82422 -17.03125,5.38281 l -1.37891,0.34375 c -5.87109,1.55078 -11.79687,2.88672 -17.78906,3.96094 -0.34375,0.0625 -0.6875,0.10547 -1.03125,0.16015 -6.1289,1.07032 -12.3125,1.90235 -18.53906,2.45704 h -0.56641 c -6.39843,0.55078 -12.80078,0.84765 -19.28125,0.84765 -6.48047,0 -12.93359,-0.24219 -19.32031,-0.79297 z M 400,396.625 V 344 C 399.93359,286.58984 353.41016,240.06641 296,240 H 184 C 126.58984,240.0664 80.066406,286.58984 80,344 v 52.61719 C -6.164062,308.67578 -5.203125,167.67969 82.148438,80.917969 169.5,-5.839844 310.5,-5.839844 397.85156,80.917969 485.20312,167.67969 486.16406,308.67578 400,396.61719 Z m 0,0"
         inkscape:connector-curvature="0"
         style="fill:#ffffff;fill-opacity:0.90452259" />
      <path
         id="path817"
         d="m 240,64 c -44.18359,0 -80,35.816406 -80,80 0,44.18359 35.81641,80 80,80 44.18359,0 80,-35.81641 80,-80 -0.0469,-44.164062 -35.83594,-79.953125 -80,-80 z m 0,144 c -35.34766,0 -64,-28.65234 -64,-64 0,-35.34766 28.65234,-64 64,-64 35.34766,0 64,28.65234 64,64 -0.0391,35.32812 -28.67188,63.96094 -64,64 z m 0,0"
         inkscape:connector-curvature="0"
         style="fill:#ffffff;fill-opacity:0.90452259" />
    </g>
  </g>
</svg>
