<?xml version="1.0" encoding="UTF-8" standalone="no"?>
<!-- Created with Inkscape (http://www.inkscape.org/) -->

<svg
   xmlns:osb="http://www.openswatchbook.org/uri/2009/osb"
   xmlns:dc="http://purl.org/dc/elements/1.1/"
   xmlns:cc="http://creativecommons.org/ns#"
   xmlns:rdf="http://www.w3.org/1999/02/22-rdf-syntax-ns#"
   xmlns:svg="http://www.w3.org/2000/svg"
   xmlns="http://www.w3.org/2000/svg"
   xmlns:xlink="http://www.w3.org/1999/xlink"
   xmlns:sodipodi="http://sodipodi.sourceforge.net/DTD/sodipodi-0.dtd"
   xmlns:inkscape="http://www.inkscape.org/namespaces/inkscape"
   width="127mm"
   height="127mm"
   viewBox="0 0 127 127"
   version="1.1"
   id="svg8"
   inkscape:version="0.92.4 (5da689c313, 2019-01-14)"
   sodipodi:docname="file.svg">
  <defs
     id="defs2">
    <linearGradient
       id="linearGradient1101"
       osb:paint="solid">
      <stop
         style="stop-color:#ffffff;stop-opacity:1;"
         offset="0"
         id="stop1099" />
    </linearGradient>
    <linearGradient
       id="linearGradient916"
       osb:paint="solid">
      <stop
         style="stop-color:#ffffff;stop-opacity:1;"
         offset="0"
         id="stop914" />
    </linearGradient>
    <linearGradient
       inkscape:collect="always"
       xlink:href="#linearGradient916"
       id="linearGradient918"
       x1="60.127998"
       y1="256"
       x2="451.87201"
       y2="256"
       gradientUnits="userSpaceOnUse" />
    <linearGradient
       inkscape:collect="always"
       xlink:href="#linearGradient916"
       id="linearGradient920"
       gradientUnits="userSpaceOnUse"
       x1="60.127998"
       y1="256"
       x2="451.87201"
       y2="256" />
    <linearGradient
       inkscape:collect="always"
       xlink:href="#linearGradient916"
       id="linearGradient922"
       gradientUnits="userSpaceOnUse"
       x1="60.127998"
       y1="256"
       x2="451.87201"
       y2="256" />
    <linearGradient
       inkscape:collect="always"
       xlink:href="#linearGradient916"
       id="linearGradient924"
       gradientUnits="userSpaceOnUse"
       x1="60.127998"
       y1="256"
       x2="451.87201"
       y2="256" />
    <linearGradient
       inkscape:collect="always"
       xlink:href="#linearGradient916"
       id="linearGradient926"
       gradientUnits="userSpaceOnUse"
       x1="60.127998"
       y1="256"
       x2="451.87201"
       y2="256" />
    <linearGradient
       inkscape:collect="always"
       xlink:href="#linearGradient916"
       id="linearGradient928"
       gradientUnits="userSpaceOnUse"
       x1="60.127998"
       y1="256"
       x2="451.87201"
       y2="256" />
    <linearGradient
       inkscape:collect="always"
       xlink:href="#linearGradient916"
       id="linearGradient930"
       gradientUnits="userSpaceOnUse"
       x1="60.127998"
       y1="256"
       x2="451.87201"
       y2="256" />
    <linearGradient
       inkscape:collect="always"
       xlink:href="#linearGradient916"
       id="linearGradient932"
       gradientUnits="userSpaceOnUse"
       x1="60.127998"
       y1="256"
       x2="451.87201"
       y2="256" />
    <linearGradient
       inkscape:collect="always"
       xlink:href="#linearGradient916"
       id="linearGradient934"
       gradientUnits="userSpaceOnUse"
       x1="60.127998"
       y1="256"
       x2="451.87201"
       y2="256" />
    <linearGradient
       inkscape:collect="always"
       xlink:href="#linearGradient916"
       id="linearGradient936"
       gradientUnits="userSpaceOnUse"
       x1="60.127998"
       y1="256"
       x2="451.87201"
       y2="256" />
    <linearGradient
       inkscape:collect="always"
       xlink:href="#linearGradient916"
       id="linearGradient938"
       gradientUnits="userSpaceOnUse"
       x1="60.127998"
       y1="256"
       x2="451.87201"
       y2="256" />
    <linearGradient
       inkscape:collect="always"
       xlink:href="#linearGradient916"
       id="linearGradient940"
       gradientUnits="userSpaceOnUse"
       x1="60.127998"
       y1="256"
       x2="451.87201"
       y2="256" />
    <linearGradient
       inkscape:collect="always"
       xlink:href="#linearGradient916"
       id="linearGradient942"
       gradientUnits="userSpaceOnUse"
       x1="60.127998"
       y1="256"
       x2="451.87201"
       y2="256" />
    <linearGradient
       inkscape:collect="always"
       xlink:href="#linearGradient916"
       id="linearGradient944"
       gradientUnits="userSpaceOnUse"
       x1="60.127998"
       y1="256"
       x2="451.87201"
       y2="256" />
    <linearGradient
       inkscape:collect="always"
       xlink:href="#linearGradient916"
       id="linearGradient946"
       gradientUnits="userSpaceOnUse"
       x1="60.127998"
       y1="256"
       x2="451.87201"
       y2="256" />
    <linearGradient
       inkscape:collect="always"
       xlink:href="#linearGradient916"
       id="linearGradient948"
       gradientUnits="userSpaceOnUse"
       x1="60.127998"
       y1="256"
       x2="451.87201"
       y2="256" />
    <linearGradient
       inkscape:collect="always"
       xlink:href="#linearGradient916"
       id="linearGradient950"
       gradientUnits="userSpaceOnUse"
       x1="60.127998"
       y1="256"
       x2="451.87201"
       y2="256" />
    <linearGradient
       inkscape:collect="always"
       xlink:href="#linearGradient916"
       id="linearGradient952"
       gradientUnits="userSpaceOnUse"
       x1="60.127998"
       y1="256"
       x2="451.87201"
       y2="256" />
    <linearGradient
       inkscape:collect="always"
       xlink:href="#linearGradient916"
       id="linearGradient954"
       gradientUnits="userSpaceOnUse"
       x1="60.127998"
       y1="256"
       x2="451.87201"
       y2="256" />
    <linearGradient
       inkscape:collect="always"
       xlink:href="#linearGradient916"
       id="linearGradient956"
       gradientUnits="userSpaceOnUse"
       x1="60.127998"
       y1="256"
       x2="451.87201"
       y2="256" />
    <linearGradient
       inkscape:collect="always"
       xlink:href="#linearGradient916"
       id="linearGradient958"
       gradientUnits="userSpaceOnUse"
       x1="60.127998"
       y1="256"
       x2="451.87201"
       y2="256" />
    <linearGradient
       inkscape:collect="always"
       xlink:href="#linearGradient916"
       id="linearGradient960"
       gradientUnits="userSpaceOnUse"
       x1="60.127998"
       y1="256"
       x2="451.87201"
       y2="256" />
    <linearGradient
       inkscape:collect="always"
       xlink:href="#linearGradient916"
       id="linearGradient962"
       gradientUnits="userSpaceOnUse"
       x1="60.127998"
       y1="256"
       x2="451.87201"
       y2="256" />
    <linearGradient
       inkscape:collect="always"
       xlink:href="#linearGradient916"
       id="linearGradient964"
       gradientUnits="userSpaceOnUse"
       x1="60.127998"
       y1="256"
       x2="451.87201"
       y2="256" />
    <linearGradient
       inkscape:collect="always"
       xlink:href="#linearGradient916"
       id="linearGradient966"
       gradientUnits="userSpaceOnUse"
       x1="60.127998"
       y1="256"
       x2="451.87201"
       y2="256" />
    <linearGradient
       inkscape:collect="always"
       xlink:href="#linearGradient916"
       id="linearGradient968"
       gradientUnits="userSpaceOnUse"
       x1="60.127998"
       y1="256"
       x2="451.87201"
       y2="256" />
    <linearGradient
       inkscape:collect="always"
       xlink:href="#linearGradient916"
       id="linearGradient970"
       gradientUnits="userSpaceOnUse"
       x1="60.127998"
       y1="256"
       x2="451.87201"
       y2="256" />
    <linearGradient
       inkscape:collect="always"
       xlink:href="#linearGradient916"
       id="linearGradient972"
       gradientUnits="userSpaceOnUse"
       x1="60.127998"
       y1="256"
       x2="451.87201"
       y2="256" />
    <linearGradient
       inkscape:collect="always"
       xlink:href="#linearGradient916"
       id="linearGradient974"
       gradientUnits="userSpaceOnUse"
       x1="60.127998"
       y1="256"
       x2="451.87201"
       y2="256" />
    <linearGradient
       inkscape:collect="always"
       xlink:href="#linearGradient916"
       id="linearGradient976"
       gradientUnits="userSpaceOnUse"
       x1="60.127998"
       y1="256"
       x2="451.87201"
       y2="256" />
    <linearGradient
       inkscape:collect="always"
       xlink:href="#linearGradient916"
       id="linearGradient978"
       gradientUnits="userSpaceOnUse"
       x1="60.127998"
       y1="256"
       x2="451.87201"
       y2="256" />
    <linearGradient
       inkscape:collect="always"
       xlink:href="#linearGradient916"
       id="linearGradient980"
       gradientUnits="userSpaceOnUse"
       x1="60.127998"
       y1="256"
       x2="451.87201"
       y2="256" />
    <linearGradient
       inkscape:collect="always"
       xlink:href="#linearGradient1101"
       id="linearGradient1103"
       x1="-2.0944617e-07"
       y1="240"
       x2="480"
       y2="240"
       gradientUnits="userSpaceOnUse" />
    <linearGradient
       inkscape:collect="always"
       xlink:href="#linearGradient1101"
       id="linearGradient1105"
       gradientUnits="userSpaceOnUse"
       x1="-2.0944617e-07"
       y1="240"
       x2="480"
       y2="240" />
    <linearGradient
       inkscape:collect="always"
       xlink:href="#linearGradient1101"
       id="linearGradient1107"
       gradientUnits="userSpaceOnUse"
       x1="-2.0944617e-07"
       y1="240"
       x2="480"
       y2="240" />
    <linearGradient
       inkscape:collect="always"
       xlink:href="#linearGradient1101"
       id="linearGradient1109"
       gradientUnits="userSpaceOnUse"
       x1="-2.0944617e-07"
       y1="240"
       x2="480"
       y2="240" />
    <linearGradient
       inkscape:collect="always"
       xlink:href="#linearGradient1101"
       id="linearGradient1111"
       gradientUnits="userSpaceOnUse"
       x1="-2.0944617e-07"
       y1="240"
       x2="480"
       y2="240" />
    <linearGradient
       inkscape:collect="always"
       xlink:href="#linearGradient1101"
       id="linearGradient1113"
       gradientUnits="userSpaceOnUse"
       x1="-2.0944617e-07"
       y1="240"
       x2="480"
       y2="240" />
    <linearGradient
       inkscape:collect="always"
       xlink:href="#linearGradient1101"
       id="linearGradient1115"
       gradientUnits="userSpaceOnUse"
       x1="-2.0944617e-07"
       y1="240"
       x2="480"
       y2="240" />
    <linearGradient
       inkscape:collect="always"
       xlink:href="#linearGradient1101"
       id="linearGradient1117"
       gradientUnits="userSpaceOnUse"
       x1="-2.0944617e-07"
       y1="240"
       x2="480"
       y2="240" />
    <linearGradient
       inkscape:collect="always"
       xlink:href="#linearGradient1101"
       id="linearGradient1119"
       gradientUnits="userSpaceOnUse"
       x1="-2.0944617e-07"
       y1="240"
       x2="480"
       y2="240" />
    <linearGradient
       inkscape:collect="always"
       xlink:href="#linearGradient1101"
       id="linearGradient1121"
       gradientUnits="userSpaceOnUse"
       x1="-2.0944617e-07"
       y1="240"
       x2="480"
       y2="240" />
    <linearGradient
       inkscape:collect="always"
       xlink:href="#linearGradient1101"
       id="linearGradient1123"
       gradientUnits="userSpaceOnUse"
       x1="-2.0944617e-07"
       y1="240"
       x2="480"
       y2="240" />
    <linearGradient
       inkscape:collect="always"
       xlink:href="#linearGradient1101"
       id="linearGradient1125"
       gradientUnits="userSpaceOnUse"
       x1="-2.0944617e-07"
       y1="240"
       x2="480"
       y2="240" />
    <linearGradient
       inkscape:collect="always"
       xlink:href="#linearGradient1101"
       id="linearGradient1127"
       gradientUnits="userSpaceOnUse"
       x1="-2.0944617e-07"
       y1="240"
       x2="480"
       y2="240" />
    <linearGradient
       inkscape:collect="always"
       xlink:href="#linearGradient1101"
       id="linearGradient1129"
       gradientUnits="userSpaceOnUse"
       x1="-2.0944617e-07"
       y1="240"
       x2="480"
       y2="240" />
    <linearGradient
       inkscape:collect="always"
       xlink:href="#linearGradient1101"
       id="linearGradient1131"
       gradientUnits="userSpaceOnUse"
       x1="-2.0944617e-07"
       y1="240"
       x2="480"
       y2="240" />
    <linearGradient
       inkscape:collect="always"
       xlink:href="#linearGradient1101"
       id="linearGradient1133"
       gradientUnits="userSpaceOnUse"
       x1="-2.0944617e-07"
       y1="240"
       x2="480"
       y2="240" />
    <linearGradient
       inkscape:collect="always"
       xlink:href="#linearGradient1101"
       id="linearGradient1135"
       gradientUnits="userSpaceOnUse"
       x1="-2.0944617e-07"
       y1="240"
       x2="480"
       y2="240" />
    <linearGradient
       inkscape:collect="always"
       xlink:href="#linearGradient1101"
       id="linearGradient1137"
       gradientUnits="userSpaceOnUse"
       x1="-2.0944617e-07"
       y1="240"
       x2="480"
       y2="240" />
    <linearGradient
       inkscape:collect="always"
       xlink:href="#linearGradient1101"
       id="linearGradient1139"
       gradientUnits="userSpaceOnUse"
       x1="-2.0944617e-07"
       y1="240"
       x2="480"
       y2="240" />
    <linearGradient
       inkscape:collect="always"
       xlink:href="#linearGradient1101"
       id="linearGradient1141"
       gradientUnits="userSpaceOnUse"
       x1="-2.0944617e-07"
       y1="240"
       x2="480"
       y2="240" />
    <linearGradient
       inkscape:collect="always"
       xlink:href="#linearGradient1101"
       id="linearGradient1143"
       gradientUnits="userSpaceOnUse"
       x1="-2.0944617e-07"
       y1="240"
       x2="480"
       y2="240" />
    <linearGradient
       inkscape:collect="always"
       xlink:href="#linearGradient1101"
       id="linearGradient1145"
       gradientUnits="userSpaceOnUse"
       x1="-2.0944617e-07"
       y1="240"
       x2="480"
       y2="240" />
    <linearGradient
       inkscape:collect="always"
       xlink:href="#linearGradient1101"
       id="linearGradient1147"
       gradientUnits="userSpaceOnUse"
       x1="-2.0944617e-07"
       y1="240"
       x2="480"
       y2="240" />
    <linearGradient
       inkscape:collect="always"
       xlink:href="#linearGradient1101"
       id="linearGradient1149"
       gradientUnits="userSpaceOnUse"
       x1="-2.0944617e-07"
       y1="240"
       x2="480"
       y2="240" />
    <linearGradient
       inkscape:collect="always"
       xlink:href="#linearGradient1101"
       id="linearGradient1151"
       gradientUnits="userSpaceOnUse"
       x1="-2.0944617e-07"
       y1="240"
       x2="480"
       y2="240" />
    <linearGradient
       inkscape:collect="always"
       xlink:href="#linearGradient1101"
       id="linearGradient1153"
       gradientUnits="userSpaceOnUse"
       x1="-2.0944617e-07"
       y1="240"
       x2="480"
       y2="240" />
    <linearGradient
       inkscape:collect="always"
       xlink:href="#linearGradient1101"
       id="linearGradient1155"
       gradientUnits="userSpaceOnUse"
       x1="-2.0944617e-07"
       y1="240"
       x2="480"
       y2="240" />
    <linearGradient
       inkscape:collect="always"
       xlink:href="#linearGradient1101"
       id="linearGradient1157"
       gradientUnits="userSpaceOnUse"
       x1="-2.0944617e-07"
       y1="240"
       x2="480"
       y2="240" />
    <linearGradient
       inkscape:collect="always"
       xlink:href="#linearGradient1101"
       id="linearGradient1159"
       gradientUnits="userSpaceOnUse"
       x1="-2.0944617e-07"
       y1="240"
       x2="480"
       y2="240" />
    <linearGradient
       inkscape:collect="always"
       xlink:href="#linearGradient1101"
       id="linearGradient1161"
       gradientUnits="userSpaceOnUse"
       x1="-2.0944617e-07"
       y1="240"
       x2="480"
       y2="240" />
    <linearGradient
       inkscape:collect="always"
       xlink:href="#linearGradient1101"
       id="linearGradient1163"
       gradientUnits="userSpaceOnUse"
       x1="-2.0944617e-07"
       y1="240"
       x2="480"
       y2="240" />
    <linearGradient
       inkscape:collect="always"
       xlink:href="#linearGradient1101"
       id="linearGradient1165"
       gradientUnits="userSpaceOnUse"
       x1="-2.0944617e-07"
       y1="240"
       x2="480"
       y2="240" />
    <linearGradient
       inkscape:collect="always"
       xlink:href="#linearGradient1101"
       id="linearGradient1167"
       gradientUnits="userSpaceOnUse"
       x1="-2.0944617e-07"
       y1="240"
       x2="480"
       y2="240" />
    <linearGradient
       inkscape:collect="always"
       xlink:href="#linearGradient1101"
       id="linearGradient1169"
       gradientUnits="userSpaceOnUse"
       x1="-2.0944617e-07"
       y1="240"
       x2="480"
       y2="240" />
    <linearGradient
       inkscape:collect="always"
       xlink:href="#linearGradient1101"
       id="linearGradient1171"
       gradientUnits="userSpaceOnUse"
       x1="-2.0944617e-07"
       y1="240"
       x2="480"
       y2="240" />
    <linearGradient
       inkscape:collect="always"
       xlink:href="#linearGradient1101"
       id="linearGradient1173"
       gradientUnits="userSpaceOnUse"
       x1="-2.0944617e-07"
       y1="240"
       x2="480"
       y2="240" />
    <linearGradient
       inkscape:collect="always"
       xlink:href="#linearGradient1101"
       id="linearGradient1175"
       gradientUnits="userSpaceOnUse"
       x1="-2.0944617e-07"
       y1="240"
       x2="480"
       y2="240" />
    <linearGradient
       inkscape:collect="always"
       xlink:href="#linearGradient1101"
       id="linearGradient1177"
       gradientUnits="userSpaceOnUse"
       x1="-2.0944617e-07"
       y1="240"
       x2="480"
       y2="240" />
  </defs>
  <sodipodi:namedview
     id="base"
     pagecolor="#ffffff"
     bordercolor="#666666"
     borderopacity="1.0"
     inkscape:pageopacity="0.0"
     inkscape:pageshadow="2"
     inkscape:zoom="0.98994949"
     inkscape:cx="183.03941"
     inkscape:cy="257.78069"
     inkscape:document-units="mm"
     inkscape:current-layer="layer1"
     showgrid="false"
     inkscape:window-width="1360"
     inkscape:window-height="705"
     inkscape:window-x="-8"
     inkscape:window-y="-8"
     inkscape:window-maximized="1" />
  <metadata
     id="metadata5">
    <rdf:RDF>
      <cc:Work
         rdf:about="">
        <dc:format>image/svg+xml</dc:format>
        <dc:type
           rdf:resource="http://purl.org/dc/dcmitype/StillImage" />
        <dc:title></dc:title>
      </cc:Work>
    </rdf:RDF>
  </metadata>
  <g
     inkscape:label="Layer 1"
     inkscape:groupmode="layer"
     id="layer1"
     transform="translate(1.6551216,-160.40343)">
    <g
       id="g912"
       transform="matrix(0.26458333,0,0,0.26458333,14.665477,114.36191)"
       style="fill:url(#linearGradient980);fill-opacity:1">
      <g
         id="g819"
         style="fill:url(#linearGradient924);fill-opacity:1">
	<g
   id="g817"
   style="fill:url(#linearGradient922);fill-opacity:1">
		<path
   id="path815"
   d="M 60.128,0 V 512 H 340.829 L 451.872,400.957 V 0 Z m 334.743,410.738 -44.26,44.26 v -44.26 z M 418.48,377.346 H 317.218 V 478.608 H 93.52 V 33.391 h 324.96 z"
   inkscape:connector-curvature="0"
   style="fill:url(#linearGradient920);fill-opacity:1" />

	</g>

</g>
      <g
         id="g825"
         style="fill:url(#linearGradient930);fill-opacity:1">
	<g
   id="g823"
   style="fill:url(#linearGradient928);fill-opacity:1">
		<rect
   id="rect821"
   height="33.390999"
   width="179.701"
   y="86.817001"
   x="166.15601"
   style="fill:url(#linearGradient926);fill-opacity:1" />

	</g>

</g>
      <g
         id="g831"
         style="fill:url(#linearGradient936);fill-opacity:1">
	<g
   id="g829"
   style="fill:url(#linearGradient934);fill-opacity:1">
		<rect
   id="rect827"
   height="33.390999"
   width="179.701"
   y="161.024"
   x="166.15601"
   style="fill:url(#linearGradient932);fill-opacity:1" />

	</g>

</g>
      <g
         id="g837"
         style="fill:url(#linearGradient942);fill-opacity:1">
	<g
   id="g835"
   style="fill:url(#linearGradient940);fill-opacity:1">
		<rect
   id="rect833"
   height="33.390999"
   width="179.701"
   y="235.21899"
   x="166.15601"
   style="fill:url(#linearGradient938);fill-opacity:1" />

	</g>

</g>
      <g
         id="g843"
         style="fill:url(#linearGradient948);fill-opacity:1">
	<g
   id="g841"
   style="fill:url(#linearGradient946);fill-opacity:1">
		<rect
   id="rect839"
   height="33.390999"
   width="179.701"
   y="309.42599"
   x="166.15601"
   style="fill:url(#linearGradient944);fill-opacity:1" />

	</g>

</g>
      <g
         id="g845"
         style="fill:url(#linearGradient950);fill-opacity:1">
</g>
      <g
         id="g847"
         style="fill:url(#linearGradient952);fill-opacity:1">
</g>
      <g
         id="g849"
         style="fill:url(#linearGradient954);fill-opacity:1">
</g>
      <g
         id="g851"
         style="fill:url(#linearGradient956);fill-opacity:1">
</g>
      <g
         id="g853"
         style="fill:url(#linearGradient958);fill-opacity:1">
</g>
      <g
         id="g855"
         style="fill:url(#linearGradient960);fill-opacity:1">
</g>
      <g
         id="g857"
         style="fill:url(#linearGradient962);fill-opacity:1">
</g>
      <g
         id="g859"
         style="fill:url(#linearGradient964);fill-opacity:1">
</g>
      <g
         id="g861"
         style="fill:url(#linearGradient966);fill-opacity:1">
</g>
      <g
         id="g863"
         style="fill:url(#linearGradient968);fill-opacity:1">
</g>
      <g
         id="g865"
         style="fill:url(#linearGradient970);fill-opacity:1">
</g>
      <g
         id="g867"
         style="fill:url(#linearGradient972);fill-opacity:1">
</g>
      <g
         id="g869"
         style="fill:url(#linearGradient974);fill-opacity:1">
</g>
      <g
         id="g871"
         style="fill:url(#linearGradient976);fill-opacity:1">
</g>
      <g
         id="g873"
         style="fill:url(#linearGradient978);fill-opacity:1">
</g>
    </g>
    <g
       id="g1097"
       transform="matrix(0.26458333,0,0,0.26458333,-1.6551215,160.40343)"
       style="fill:url(#linearGradient1177);fill-opacity:1">
      <g
         id="g986"
         style="fill:url(#linearGradient1109);fill-opacity:1">
	<g
   id="g984"
   style="fill:url(#linearGradient1107);fill-opacity:1">
		<path
   id="path982"
   d="M 472.004,0 C 472.003,0 472.001,0 472,0 H 8 C 3.583,-0.001 0.001,3.579 0,7.996 0,7.997 0,7.999 0,8 V 168 H 16 V 16 H 464 V 192 H 184 v 16 h 288 c 4.417,0.001 7.999,-3.579 8,-7.996 0,-0.001 0,-0.003 0,-0.004 V 8 c 10e-4,-4.417 -3.579,-7.999 -7.996,-8 z"
   inkscape:connector-curvature="0"
   style="fill:url(#linearGradient1105);fill-opacity:1" />

	</g>

</g>
      <g
         id="g992"
         style="fill:url(#linearGradient1115);fill-opacity:1">
	<g
   id="g990"
   style="fill:url(#linearGradient1113);fill-opacity:1">
		<rect
   id="rect988"
   height="16"
   width="160"
   y="40"
   x="264"
   style="fill:url(#linearGradient1111);fill-opacity:1" />

	</g>

</g>
      <g
         id="g998"
         style="fill:url(#linearGradient1121);fill-opacity:1">
	<g
   id="g996"
   style="fill:url(#linearGradient1119);fill-opacity:1">
		<rect
   id="rect994"
   height="16"
   width="160"
   y="88"
   x="288"
   style="fill:url(#linearGradient1117);fill-opacity:1" />

	</g>

</g>
      <g
         id="g1004"
         style="fill:url(#linearGradient1127);fill-opacity:1">
	<g
   id="g1002"
   style="fill:url(#linearGradient1125);fill-opacity:1">
		<rect
   id="rect1000"
   height="16"
   width="160"
   y="136"
   x="256"
   style="fill:url(#linearGradient1123);fill-opacity:1" />

	</g>

</g>
      <g
         id="g1010"
         style="fill:url(#linearGradient1133);fill-opacity:1">
	<g
   id="g1008"
   style="fill:url(#linearGradient1131);fill-opacity:1">
		<path
   id="path1006"
   d="m 255.362,68.974 c -5.477,-13.165 -20.589,-19.397 -33.753,-13.92 -0.225,0.094 -0.449,0.19 -0.671,0.29 L 156.07,88.994 C 158.628,83.692 159.971,77.886 160,72 160,49.909 142.091,32 120,32 97.909,32 80,49.909 80,72 c 0.03,8.683 2.913,17.116 8.205,24 H 87.872 C 65.164,96.152 44.893,110.269 36.876,131.516 L 15.52,205.125 c -5.084,13.206 1.5,28.034 14.707,33.118 6.022,2.318 12.697,2.279 18.692,-0.11 6.888,-2.775 12.248,-8.379 14.715,-15.383 L 72,196.125 V 311.908 C 65.116,306.617 56.683,303.734 48,303.703 25.942,303.67 8.033,321.525 8,343.584 7.984,354.387 12.344,364.735 20.087,372.269 7.799,378.547 0.048,391.163 0,404.961 V 472 c -0.001,4.417 3.579,7.999 7.996,8 10e-4,0 0.003,0 0.004,0 h 80 c 4.417,10e-4 7.999,-3.579 8,-7.996 0,-0.001 0,-0.003 0,-0.004 V 404.961 C 95.961,393.622 90.693,382.936 81.724,376 h 60.553 c -8.97,6.936 -14.238,17.622 -14.276,28.961 V 472 c -0.001,4.417 3.579,7.999 7.996,8 10e-4,0 0.003,0 0.004,0 h 80 c 4.417,10e-4 7.999,-3.579 8,-7.996 0,-0.001 0,-0.003 0,-0.004 v -67.039 c -0.048,-13.798 -7.799,-26.414 -20.087,-32.692 15.795,-15.417 16.102,-40.72 0.685,-56.515 -9.494,-9.727 -23.281,-13.962 -36.598,-11.242 V 140.859 l 73.441,-38.133 c 13.164,-5.476 19.396,-20.588 13.92,-33.752 z M 120,48 c 13.255,0 24,10.745 24,24 0,13.255 -10.745,24 -24,24 C 106.751,95.986 96.014,85.249 96,72 96,58.745 106.745,48 120,48 Z M 48,319.703 c 13.255,0 24,10.745 24,24 0,13.255 -10.745,24 -24,24 -13.255,0 -24,-10.745 -24,-24 0.014,-13.249 10.751,-23.985 24,-24 z M 80,464 H 16 V 404.961 C 16.016,393.39 25.393,384.014 36.965,384 h 22.07 c 11.571,0.014 20.949,9.39 20.965,20.961 z M 208,404.961 V 464 h -64 v -59.039 c 0.016,-11.571 9.393,-20.947 20.965,-20.961 h 22.07 c 11.572,0.014 20.949,9.39 20.965,20.961 z m -32,-85.258 c 13.249,0.014 23.986,10.751 24,24 0,13.255 -10.745,24 -24,24 -13.255,0 -24,-10.745 -24,-24 0,-13.255 10.745,-24 24,-24 z M 240.723,82.32 c -1.071,2.748 -3.27,4.905 -6.039,5.922 l -78.367,40.656 C 153.665,130.274 152,133.013 152,136 V 311.908 C 137.015,322.988 131.824,343.041 139.552,360 H 128 V 224 H 112 V 360 H 84.448 c 2.276,-5.03 3.475,-10.48 3.522,-16 H 88 V 144 c -0.001,-4.419 -3.584,-8 -8.002,-7.999 -3.493,0.001 -6.582,2.268 -7.63,5.601 L 48.48,217.617 c -1.81,4.992 -7.325,7.572 -12.317,5.761 -0.35,-0.127 -0.693,-0.274 -1.027,-0.441 -4.615,-2.385 -6.574,-7.953 -4.468,-12.703 L 52.023,136.625 C 57.782,121.835 71.999,112.069 87.871,112 h 56.645 c 1.282,0.002 2.546,-0.307 3.684,-0.898 l 79.512,-41.273 c 4.77,-1.99 10.268,0.046 12.59,4.664 1.231,2.434 1.384,5.274 0.421,7.827 z"
   inkscape:connector-curvature="0"
   style="fill:url(#linearGradient1129);fill-opacity:1" />

	</g>

</g>
      <g
         id="g1016"
         style="fill:url(#linearGradient1139);fill-opacity:1">
	<g
   id="g1014"
   style="fill:url(#linearGradient1137);fill-opacity:1">
		<path
   id="path1012"
   d="m 331.913,372.269 c 15.823,-15.416 16.153,-40.741 0.737,-56.564 -15.416,-15.823 -40.741,-16.153 -56.564,-0.737 -15.823,15.416 -16.153,40.741 -0.737,56.564 0.243,0.249 0.489,0.495 0.738,0.737 C 263.8,378.547 256.048,391.163 256,404.961 V 472 c -0.001,4.417 3.579,7.999 7.996,8 0.001,0 0.003,0 0.004,0 h 80 c 4.417,10e-4 7.999,-3.579 8,-7.996 0,-0.001 0,-0.003 0,-0.004 v -67.039 c -0.048,-13.798 -7.799,-26.414 -20.087,-32.692 z M 304,319.703 c 13.255,0 24,10.745 24,24 0,13.255 -10.745,24 -24,24 -13.255,0 -24,-10.745 -24,-24 0.014,-13.249 10.751,-23.985 24,-24 z M 336,464 h -64 v -59.039 c 0.016,-11.571 9.393,-20.947 20.965,-20.961 h 22.07 c 11.571,0.014 20.949,9.39 20.965,20.961 V 464 Z"
   inkscape:connector-curvature="0"
   style="fill:url(#linearGradient1135);fill-opacity:1" />

	</g>

</g>
      <g
         id="g1022"
         style="fill:url(#linearGradient1145);fill-opacity:1">
	<g
   id="g1020"
   style="fill:url(#linearGradient1143);fill-opacity:1">
		<path
   id="path1018"
   d="m 459.913,372.269 c 15.823,-15.416 16.153,-40.741 0.737,-56.564 -15.416,-15.823 -40.741,-16.153 -56.564,-0.737 -15.823,15.416 -16.153,40.741 -0.737,56.564 0.243,0.249 0.489,0.495 0.738,0.737 C 391.8,378.547 384.048,391.163 384,404.961 V 472 c -10e-4,4.417 3.579,7.999 7.996,8 0.001,0 0.003,0 0.004,0 h 80 c 4.417,10e-4 7.999,-3.579 8,-7.996 0,-0.001 0,-0.003 0,-0.004 v -67.039 c -0.048,-13.798 -7.799,-26.414 -20.087,-32.692 z M 432,319.703 c 13.255,0 24,10.745 24,24 0,13.255 -10.745,24 -24,24 -13.255,0 -24,-10.745 -24,-24 0.014,-13.249 10.751,-23.985 24,-24 z M 464,464 h -64 v -59.039 c 0.016,-11.571 9.393,-20.947 20.965,-20.961 h 22.07 c 11.571,0.014 20.949,9.39 20.965,20.961 V 464 Z"
   inkscape:connector-curvature="0"
   style="fill:url(#linearGradient1141);fill-opacity:1" />

	</g>

</g>
      <g
         id="g1024"
         style="fill:url(#linearGradient1147);fill-opacity:1">
</g>
      <g
         id="g1026"
         style="fill:url(#linearGradient1149);fill-opacity:1">
</g>
      <g
         id="g1028"
         style="fill:url(#linearGradient1151);fill-opacity:1">
</g>
      <g
         id="g1030"
         style="fill:url(#linearGradient1153);fill-opacity:1">
</g>
      <g
         id="g1032"
         style="fill:url(#linearGradient1155);fill-opacity:1">
</g>
      <g
         id="g1034"
         style="fill:url(#linearGradient1157);fill-opacity:1">
</g>
      <g
         id="g1036"
         style="fill:url(#linearGradient1159);fill-opacity:1">
</g>
      <g
         id="g1038"
         style="fill:url(#linearGradient1161);fill-opacity:1">
</g>
      <g
         id="g1040"
         style="fill:url(#linearGradient1163);fill-opacity:1">
</g>
      <g
         id="g1042"
         style="fill:url(#linearGradient1165);fill-opacity:1">
</g>
      <g
         id="g1044"
         style="fill:url(#linearGradient1167);fill-opacity:1">
</g>
      <g
         id="g1046"
         style="fill:url(#linearGradient1169);fill-opacity:1">
</g>
      <g
         id="g1048"
         style="fill:url(#linearGradient1171);fill-opacity:1">
</g>
      <g
         id="g1050"
         style="fill:url(#linearGradient1173);fill-opacity:1">
</g>
      <g
         id="g1052"
         style="fill:url(#linearGradient1175);fill-opacity:1">
</g>
    </g>
  </g>
</svg>
