<?xml version="1.0" encoding="utf-8"?>
<!-- Generator: Adobe Illustrator 23.0.0, SVG Export Plug-In . SVG Version: 6.00 Build 0)  -->
<svg version="1.1" id="Слой_1" xmlns="http://www.w3.org/2000/svg" xmlns:xlink="http://www.w3.org/1999/xlink" x="0px" y="0px"
	 viewBox="0 0 861.83 234.06" style="enable-background:new 0 0 861.83 234.06;" xml:space="preserve">
<style type="text/css">
	.st0{fill:#FFFFFF;}
</style>
<g>
	<g>
		<polygon class="st0" points="263.27,165.94 270.45,165.94 270.45,207.64 280.19,207.64 280.19,157.52 263.27,157.52 		"/>
	</g>
	<g>
		<path class="st0" d="M319.52,156.39c-13.33,0-18.94,8.94-18.94,17.81c0,10.44,7.64,16.3,15.72,16.3c2.24,0,4.04-0.53,5.62-1.2
			l-11.83,15.18l6.89,5.26l15.2-20.44c3.22-4.28,6.29-9.24,6.29-15.63C338.46,164.58,332.17,156.39,319.52,156.39z M319.52,182.69
			c-5.24,0-9.21-3.91-9.21-9.24s3.97-9.24,9.21-9.24c5.24,0,9.21,3.91,9.21,9.24S324.76,182.69,319.52,182.69z"/>
	</g>
	<g>
		<path class="st0" d="M383.38,156.62h-8.76l-24.78,37.79v4.36h24.41v8.87h9.14v-8.87h5.84v-7.82h-5.84V156.62z M374.25,190.96
			h-12.88l12.88-19.91V190.96z"/>
	</g>
	<g>
		<path class="st0" d="M418.42,173.53c-1.27,0-2.32,0.15-3.3,0.3l1.8-7.89h16.62v-8.42h-23.06l-5.92,26.3h0.6
			c3.59-2.71,7.04-3.23,9.58-3.23c7.64,0,11.3,4.81,11.3,10.07c0,5.71-4.04,9.69-10.03,9.69c-6.22,0-10.41-3.61-12.65-6.38
			l-3.22,8.42c5.84,5.71,12.13,6.38,16.1,6.38c13.78,0,19.54-8.79,19.54-18.26C435.79,179.69,428.22,173.53,418.42,173.53z"/>
	</g>
	<g>
		<rect x="449.7" y="181.94" class="st0" width="39.71" height="7.82"/>
	</g>
	<g>
		<path class="st0" d="M528.77,189.83c3.9-4.21,9.06-9.77,9.06-17.51c0-7.97-5.99-15.93-17.6-15.93c-9.88,0-17.07,6.54-17.52,16.76
			h10.03c0.15-4.28,2.85-8.34,7.94-8.34c4.19,0,7.41,3.08,7.41,7.59c0,2.93-1.57,6.01-2.92,8.04c-1.8,2.71-7.64,9.39-8.54,10.45
			l-14.68,16.75h36.24v-8.42h-18.04L528.77,189.83z"/>
	</g>
	<g>
		<path class="st0" d="M571.89,156.39c-9.96,0-19.32,8.94-19.32,26.15c0,17.28,9.36,26.22,19.32,26.22
			c9.96,0,19.32-8.94,19.32-26.15C591.21,165.33,581.85,156.39,571.89,156.39z M571.89,200.35c-4.27,0-9.58-4.73-9.58-17.81
			c0-13,5.39-17.73,9.58-17.73c4.19,0,9.58,4.73,9.58,17.73C581.48,195.61,576.16,200.35,571.89,200.35z"/>
	</g>
	<g>
		<path class="st0" d="M628.79,189.83c3.9-4.21,9.06-9.77,9.06-17.51c0-7.97-5.99-15.93-17.6-15.93c-9.88,0-17.07,6.54-17.52,16.76
			h10.03c0.15-4.28,2.85-8.34,7.94-8.34c4.19,0,7.41,3.08,7.41,7.59c0,2.93-1.57,6.01-2.92,8.04c-1.8,2.71-7.64,9.39-8.54,10.45
			l-14.68,16.75h36.24v-8.42h-18.04L628.79,189.83z"/>
	</g>
	<g>
		<path class="st0" d="M671.91,156.39c-9.96,0-19.32,8.94-19.32,26.15c0,17.28,9.36,26.22,19.32,26.22
			c9.96,0,19.32-8.94,19.32-26.15C691.23,165.33,681.87,156.39,671.91,156.39z M671.91,200.35c-4.27,0-9.58-4.73-9.58-17.81
			c0-13,5.39-17.73,9.58-17.73c4.19,0,9.58,4.73,9.58,17.73C681.5,195.61,676.18,200.35,671.91,200.35z"/>
	</g>
</g>
<g>
	<g>
		<polygon class="st0" points="342.39,116.18 342.39,26.11 263.27,26.11 263.27,116.18 286.63,116.18 286.63,46.09 318.9,46.09 
			318.9,116.18 		"/>
	</g>
	<g>
		<path class="st0" d="M439.53,104.83c9.59-9.18,14.18-21.74,14.18-33.62c0-12.02-4.59-24.71-14.18-33.76
			c-9.18-8.77-22.14-13.37-35.51-13.37s-26.33,4.59-35.51,13.37c-9.59,9.05-14.18,21.74-14.18,33.76c0,11.88,4.59,24.44,14.18,33.62
			c9.18,8.78,22.14,13.37,35.51,13.37S430.35,113.61,439.53,104.83z M378.63,71.62c0-6.35,2.3-12.96,7.16-17.69
			c4.86-4.86,11.75-7.16,18.23-7.16c6.21,0,13.1,2.43,18.09,7.16c4.19,4.05,7.29,10.26,7.29,17.28c0,6.89-3.11,13.1-7.29,17.28
			c-4.19,4.19-10.13,7.02-18.09,7.02c-7.83,0-13.91-2.97-18.23-7.16C382.41,85.12,378.63,79.58,378.63,71.62z"/>
	</g>
	<g>
		<path class="st0" d="M526.1,108.08c4.86-4.86,7.43-11.88,7.43-19.17c0-7.56-2.7-14.18-6.89-18.64
			c-6.75-7.02-17.01-8.78-28.49-8.78h-9.18V45.96h35.11V26.11h-58.6v90.06h31.87C508.14,116.18,518.94,115.1,526.1,108.08z
			 M488.97,97.95V79.31h8.1c2.97,0,7.29,0.14,9.99,2.43c1.48,1.35,2.7,3.64,2.7,6.75c0,2.7-0.95,4.86-2.3,6.35
			c-2.84,2.97-7.83,3.1-10.4,3.1H488.97z"/>
	</g>
	<g>
		<polygon class="st0" points="596.4,45.96 596.4,26.11 545.23,26.11 545.23,116.18 596.4,116.18 596.4,96.33 568.59,96.33 
			568.59,80.8 594.92,80.8 594.92,60.95 568.59,60.95 568.59,45.96 		"/>
	</g>
	<g>
		<path class="st0" d="M700.25,136.43V98.08h-10.8V26.11h-68.06v37c0,12.83-1.08,22.55-7.83,29.57c-3.38,3.51-6.75,4.86-10.26,5.4
			v38.35h21.06v-20.26h54.82v20.26H700.25z M665.95,98.08h-31.87c3.78-3.92,6.21-8.1,7.83-13.77c1.89-6.75,2.16-14.59,2.16-18.91
			V44.2h21.88V98.08z"/>
	</g>
	<g>
		<path class="st0" d="M740.72,26.11l-34.57,90.06h24.71l6.08-15.12h32.68l5.54,15.12h24.98l-33.89-90.06H740.72z M743.42,83.23
			l9.86-29.17l10.13,29.17H743.42z"/>
	</g>
	<g>
		<path class="st0" d="M831.74,94.98c-2.97-2.97-6.62-4.32-9.99-4.32c-2.97,0-6.62,0.94-9.86,4.19c-1.76,1.75-4.19,5-4.19,9.86
			c0,4.86,2.43,8.1,4.19,9.86c3.24,3.24,6.89,4.19,9.86,4.19c3.51,0,7.02-1.35,9.86-4.19c2.43-2.43,4.05-5.4,4.05-9.86
			S834.03,97.27,831.74,94.98z"/>
	</g>
	<g>
		<rect x="810.4" y="26.11" class="st0" width="22.41" height="59.41"/>
	</g>
</g>
<g>
	<path class="st0" d="M91.46,129.14c6-23.97,17.96-45.51,33.1-64.91l4.39,5.19l5.22-17.06l-17.27,2.83l4.34,5.13
		C97.82,73.11,43.22,105.1,26.21,183.76c-2.84,13.13-5.36,34.04-5.36,34.04s42.67,0.49,65.9-2
		C86.42,186.96,84.46,157.12,91.46,129.14z"/>
</g>
<g>
	<path class="st0" d="M219.19,109.6c-9.22-41.34-61.81-39.98-86.28-18.08l-3.08-6.08l-9.08,15.36l17.47,1.28l-3.04-5.99
		c18.9-7.35,49.43-3.65,46.01,23.43c-3.39,26.85-47.02,36.39-70.73,39.95v53.73C114.3,213.39,236.45,187,219.19,109.6z"/>
</g>
<g>
	<path class="st0" d="M201.05,40.63c5.18-7.15,9.52-15.15,11.3-20.46l4.71,4.7l3.77-17.44l-16.97,4.28l4.76,4.75
		c-0.05,0.04-9.73,6.3-27.29,10.38c-15.24,3.54-33.6,3.82-33.6,3.82c-0.83,2.58-9.86,32.85-12.95,43.17
		C161.61,73.85,189.3,56.85,201.05,40.63z"/>
</g>
<g>
	<path class="st0" d="M121.75,41.48l-2.46,6.42l17.23-2.82l-10.56-14.67l-2.44,6.44c-0.17-0.15-17.88-13.57-43.12-19.82
		c-13.88-3.44-30.85-2.48-47.39,0.93v60.62C82.04,38.86,121.76,41.48,121.75,41.48z"/>
</g>
</svg>
